# xmcd
#
# Track frame offsets:
#	150
#	19453
#	33558
#	48699
#	66667
#	83746
#	103509
#	122224
#	141530
#	156434
#	176537
#	194614
#	210866
#
# Disc length: 3020 seconds
#
# Revision: 0
# Processed by: cddbd v1.5.1PL0 Copyright (c) Steve Scherf et al.
# Submitted via: dBpowerAMP V4.0
#
DISCID=c70bca0d
DTITLE=Cathy Grier - retracing
DYEAR=2000
DGENRE=Blues
TTITLE0=Protecting My Heart
TTITLE1=Birds bop
TTITLE2=Mystery Plane
TTITLE3=Backroad
TTITLE4=Get Back to Sanity
TTITLE5=Dedicate
TTITLE6=Jungle
TTITLE7=Witness
TTITLE8=Stand Tall
TTITLE9=My Little Town
TTITLE10=Jenny
TTITLE11=Walk Where you Walk
TTITLE12=Edge of the End
EXTD=
EXTT0=
EXTT1=
EXTT2=
EXTT3=
EXTT4=
EXTT5=
EXTT6=
EXTT7=
EXTT8=
EXTT9=
EXTT10=
EXTT11=
EXTT12=
PLAYORDER=
